<svg width="305" height="229" viewBox="0 0 305 229" fill="none" xmlns="http://www.w3.org/2000/svg">
<path d="M164.661 193.927L162.847 192.866C162.324 193.759 162.53 194.9 163.331 195.555C182.75 211.417 196.668 218.937 207.189 222.461C216.574 225.605 223.181 225.531 228.226 225.475C228.866 225.467 229.481 225.461 230.073 225.461C230.08 225.461 230.088 225.461 230.096 225.46C230.108 225.46 230.121 225.46 230.134 225.46C253.189 224.793 269.789 216.686 280.378 204.711C290.943 192.764 295.349 177.164 294.408 161.807C292.555 131.573 269.858 101.71 231.656 101.922C219.489 60.0608 187.154 39.6764 155.416 39.9472C123.806 40.2169 93.082 60.9885 83.9001 100.634C59.5659 97.1057 40.0415 103.412 26.2398 114.948C12.1066 126.761 4.10911 143.945 3.02488 161.269C1.94001 178.603 7.77554 196.185 21.4432 208.684C35.1254 221.196 56.3963 228.381 85.7431 225.45C85.7845 225.446 85.8258 225.441 85.8669 225.434C86.9608 225.259 87.988 225.097 88.9577 224.944C95.0989 223.977 98.932 223.373 102.768 221.994C107.229 220.389 111.663 217.754 119.908 212.521C124.258 209.76 130.149 204.49 136.443 198.281C142.777 192.034 149.647 184.71 155.982 177.733C162.321 170.752 168.138 164.103 172.37 159.199C174.487 156.747 176.207 154.731 177.4 153.327C177.996 152.625 178.46 152.076 178.775 151.703C178.933 151.516 179.053 151.373 179.134 151.276L179.226 151.166L179.25 151.138L179.256 151.131L179.257 151.129C179.258 151.129 179.258 151.129 177.647 149.778L179.258 151.129C179.527 150.807 179.694 150.413 179.738 149.996C179.887 148.57 179.455 147.277 178.482 146.3C177.594 145.409 176.411 144.934 175.289 144.667C173.047 144.133 170.149 144.223 167.368 144.544C164.53 144.871 161.585 145.467 159.136 146.087C156.748 146.692 154.643 147.366 153.581 147.897C149.071 150.152 146.073 153.151 144.642 154.582L144.625 154.598C144.521 154.702 144.429 154.816 144.349 154.939C122.613 188.38 99.9159 199.717 81.9127 202.287C63.7968 204.874 50.0595 198.639 46.2955 196.338C31.3894 187.226 25.2339 165.668 32.7292 148.392C36.4396 139.84 43.5141 132.324 54.6364 127.96C65.7915 123.583 81.1423 122.333 101.394 126.607C102.014 126.738 102.66 126.582 103.152 126.183C103.645 125.783 103.93 125.183 103.93 124.55C103.93 105.099 110.691 90.6895 120.673 81.1381C130.682 71.561 144.06 66.7448 157.481 66.7449C170.903 66.7449 184.28 71.5613 194.289 81.1385C204.271 90.6899 211.031 105.099 211.03 124.55C211.03 125.149 211.286 125.72 211.733 126.119C212.181 126.518 212.777 126.707 213.372 126.638C236.99 123.928 252.505 129.302 261.619 137.935C270.734 146.57 273.793 158.79 271.865 170.539C269.934 182.307 263.022 193.418 252.448 199.697C241.945 205.935 227.592 207.546 210.428 199.905C209.432 199.462 197.897 194.145 185.157 187.375C178.053 183.6 172.38 184.856 168.516 187.241C166.642 188.398 165.241 189.785 164.313 190.872C163.846 191.418 163.491 191.897 163.248 192.248C163.126 192.424 163.031 192.568 162.965 192.673C162.931 192.726 162.905 192.769 162.885 192.801L162.861 192.842L162.852 192.856L162.849 192.861L162.848 192.864C162.847 192.865 162.847 192.866 164.661 193.927Z" fill="#4DD8BF" stroke="#4DD8BF" stroke-width="4.2047" stroke-linejoin="round"/>
<path d="M245.384 98.3644C246.193 93.9433 248.079 89.7899 250.877 86.2721C253.675 82.7544 257.296 79.9808 261.422 78.1972C265.547 76.4136 270.049 75.6749 274.528 76.0466C279.007 76.4183 283.326 77.8889 287.101 80.3282C290.876 82.7674 293.991 86.1001 296.17 90.0308C298.35 93.9616 299.526 98.3692 299.595 102.863C299.664 107.357 298.624 111.799 296.567 115.795C294.509 119.791 291.498 123.218 287.8 125.772L279.69 114.029C281.457 112.809 282.896 111.171 283.879 109.262C284.862 107.353 285.359 105.23 285.326 103.083C285.293 100.935 284.731 98.8291 283.69 96.9508C282.648 95.0725 281.16 93.48 279.356 92.3144C277.552 91.1488 275.488 90.4461 273.348 90.2685C271.208 90.0909 269.057 90.4439 267.085 91.2962C265.114 92.1485 263.383 93.4738 262.046 95.1547C260.71 96.8357 259.808 98.8203 259.422 100.933L245.384 98.3644Z" fill="#4DD8BF"/>
<path d="M232.054 39.9438C232.054 55.0381 244.29 67.2744 259.384 67.2744C274.479 67.2744 286.715 55.0381 286.715 39.9438C286.715 24.8496 274.479 12.6133 259.384 12.6133C244.29 12.6133 232.054 24.8496 232.054 39.9438ZM272.444 39.9438C272.444 47.1565 266.597 53.0036 259.384 53.0036C252.172 53.0036 246.325 47.1565 246.325 39.9438C246.325 32.7311 252.172 26.8841 259.384 26.8841C266.597 26.8841 272.444 32.7311 272.444 39.9438Z" fill="#4DD8BF"/>
<path d="M213.071 59.0407C216.436 56.0609 219.014 52.2973 220.577 48.0832C222.139 43.8691 222.639 39.3346 222.031 34.8814C221.422 30.4282 219.725 26.1938 217.089 22.5532C214.454 18.9125 210.961 15.9781 206.92 14.0099C202.88 12.0416 198.416 11.1002 193.925 11.2691C189.433 11.4379 185.053 12.7119 181.171 14.978C177.29 17.2442 174.027 20.4326 171.672 24.2608C169.318 28.0891 167.943 32.439 167.671 36.9253L181.916 37.7895C182.046 35.6457 182.702 33.5671 183.828 31.7378C184.953 29.9085 186.512 28.385 188.367 27.3021C190.221 26.2192 192.315 25.6105 194.461 25.5298C196.607 25.4491 198.74 25.8989 200.671 26.8395C202.601 27.78 204.27 29.1822 205.53 30.9218C206.789 32.6615 207.6 34.6849 207.891 36.8128C208.182 38.9407 207.943 41.1075 207.196 43.1212C206.45 45.1349 205.218 46.9333 203.61 48.3572L213.071 59.0407Z" fill="#4DD8BF"/>
<path d="M236.259 39.9453H219.44" stroke="#4DD8BF" stroke-width="4.2047" stroke-linejoin="round"/>
<path d="M268.755 79.6077L265.691 63.0703" stroke="#4DD8BF" stroke-width="4.2047" stroke-linejoin="round"/>
</svg>
